<svg width="129" height="80" viewBox="0 0 129 80" fill="none" xmlns="http://www.w3.org/2000/svg">
<rect width="129" height="80" fill="white"/>
<path fill-rule="evenodd" clip-rule="evenodd" d="M25.6609 35.8755L25.8935 38.6667H30.1065L30.3391 35.8755C30.4531 34.507 29.3732 33.3333 28 33.3333C26.6268 33.3333 25.5469 34.507 25.6609 35.8755ZM31.4444 38.6667L31.6678 35.9862C31.8466 33.8404 30.1533 32 28 32C25.8467 32 24.1534 33.8404 24.3322 35.9862L24.5556 38.6667H21.3469H20L20.1905 40L21.0063 45.7105C21.1939 47.0242 22.3191 48 23.6461 48H32.3539C33.6809 48 34.8061 47.0242 34.9937 45.7105L35.8095 40L36 38.6667H34.6531H31.4444ZM31.3333 40H31.2801L31.0579 42.6667H34.0817L34.4627 40H31.3333ZM29.9421 40H26.0579L26.2801 42.6667H29.7199L29.9421 40ZM24.7199 40H24.6667H21.5373L21.9183 42.6667H24.9421L24.7199 40ZM26.6134 46.6667L26.3912 44H29.6088L29.3866 46.6667H26.6134ZM30.9468 44L30.7245 46.6667H32.3539C33.0174 46.6667 33.58 46.1788 33.6738 45.5219L33.8912 44H30.9468ZM25.0532 44L25.2755 46.6667H23.6461C22.9826 46.6667 22.42 46.1788 22.3262 45.5219L22.1088 44H25.0532Z" fill="#333333"/>
<path d="M48.236 40.304H46.484V44H45.308V35.6H46.484V39.248H48.26L50.9 35.6H52.184L49.184 39.668L52.328 44H50.96L48.236 40.304ZM57.5546 44.096C56.7066 44.096 55.9426 43.912 55.2626 43.544C54.5826 43.168 54.0466 42.652 53.6546 41.996C53.2706 41.34 53.0786 40.608 53.0786 39.8C53.0786 38.992 53.2706 38.26 53.6546 37.604C54.0466 36.948 54.5826 36.436 55.2626 36.068C55.9426 35.692 56.7066 35.504 57.5546 35.504C58.3946 35.504 59.1546 35.692 59.8346 36.068C60.5146 36.436 61.0466 36.948 61.4306 37.604C61.8146 38.252 62.0066 38.984 62.0066 39.8C62.0066 40.616 61.8146 41.352 61.4306 42.008C61.0466 42.656 60.5146 43.168 59.8346 43.544C59.1546 43.912 58.3946 44.096 57.5546 44.096ZM57.5546 43.028C58.1706 43.028 58.7226 42.888 59.2106 42.608C59.7066 42.328 60.0946 41.944 60.3746 41.456C60.6626 40.96 60.8066 40.408 60.8066 39.8C60.8066 39.192 60.6626 38.644 60.3746 38.156C60.0946 37.66 59.7066 37.272 59.2106 36.992C58.7226 36.712 58.1706 36.572 57.5546 36.572C56.9386 36.572 56.3786 36.712 55.8746 36.992C55.3786 37.272 54.9866 37.66 54.6986 38.156C54.4186 38.644 54.2786 39.192 54.2786 39.8C54.2786 40.408 54.4186 40.96 54.6986 41.456C54.9866 41.944 55.3786 42.328 55.8746 42.608C56.3786 42.888 56.9386 43.028 57.5546 43.028ZM67.4624 35.6C68.5504 35.6 69.4064 35.86 70.0304 36.38C70.6544 36.9 70.9664 37.616 70.9664 38.528C70.9664 39.44 70.6544 40.156 70.0304 40.676C69.4064 41.196 68.5504 41.456 67.4624 41.456H65.3864V44H64.1864V35.6H67.4624ZM67.4264 40.412C68.1864 40.412 68.7664 40.252 69.1664 39.932C69.5664 39.604 69.7664 39.136 69.7664 38.528C69.7664 37.92 69.5664 37.456 69.1664 37.136C68.7664 36.808 68.1864 36.644 67.4264 36.644H65.3864V40.412H67.4264ZM76.8019 39.62C77.3299 39.764 77.7419 40.016 78.0379 40.376C78.3339 40.728 78.4819 41.152 78.4819 41.648C78.4819 42.144 78.3219 42.58 78.0019 42.956C77.6899 43.324 77.2699 43.608 76.7419 43.808C76.2219 44 75.6539 44.096 75.0379 44.096C74.4779 44.096 73.9219 44.012 73.3699 43.844C72.8179 43.676 72.3139 43.424 71.8579 43.088L72.2779 42.2C72.6459 42.488 73.0579 42.704 73.5139 42.848C73.9699 42.992 74.4299 43.064 74.8939 43.064C75.5659 43.064 76.1299 42.924 76.5859 42.644C77.0419 42.356 77.2699 41.964 77.2699 41.468C77.2699 41.044 77.0979 40.72 76.7539 40.496C76.4099 40.264 75.9259 40.148 75.3019 40.148H73.4299V39.176H75.2179C75.7539 39.176 76.1699 39.068 76.4659 38.852C76.7699 38.628 76.9219 38.32 76.9219 37.928C76.9219 37.488 76.7259 37.14 76.3339 36.884C75.9419 36.628 75.4459 36.5 74.8459 36.5C74.4539 36.5 74.0539 36.556 73.6459 36.668C73.2459 36.78 72.8659 36.948 72.5059 37.172L72.1219 36.188C72.5459 35.948 72.9939 35.768 73.4659 35.648C73.9379 35.528 74.4099 35.468 74.8819 35.468C75.4739 35.468 76.0179 35.56 76.5139 35.744C77.0099 35.928 77.4019 36.196 77.6899 36.548C77.9859 36.9 78.1339 37.312 78.1339 37.784C78.1339 38.208 78.0139 38.58 77.7739 38.9C77.5419 39.22 77.2179 39.46 76.8019 39.62ZM80.7211 35.6H81.9091V42.08L86.8771 35.6H87.9811V44H86.8051V37.532L81.8251 44H80.7211V35.6ZM98.064 35.6V44H96.864V40.256H92.04V44H90.84V35.6H92.04V39.212H96.864V35.6H98.064ZM106.384 41.9H101.92L100.996 44H99.7598L103.564 35.6H104.752L108.568 44H107.308L106.384 41.9ZM105.964 40.94L104.152 36.824L102.34 40.94H105.964Z" fill="#333333"/>
</svg>
