<svg width="60" height="80" viewBox="0 0 60 80" fill="none" xmlns="http://www.w3.org/2000/svg">
<rect width="60" height="80" fill="white"/>
<path fill-rule="evenodd" clip-rule="evenodd" d="M27.6609 35.8755L27.8935 38.6667H32.1065L32.3391 35.8755C32.4531 34.507 31.3732 33.3333 30 33.3333C28.6268 33.3333 27.5469 34.507 27.6609 35.8755ZM33.4444 38.6667L33.6678 35.9862C33.8466 33.8404 32.1533 32 30 32C27.8467 32 26.1534 33.8404 26.3322 35.9862L26.5556 38.6667H23.3469H22L22.1905 40L23.0063 45.7105C23.1939 47.0242 24.3191 48 25.6461 48H34.3539C35.6809 48 36.8061 47.0242 36.9937 45.7105L37.8095 40L38 38.6667H36.6531H33.4444ZM33.3333 40H33.2801L33.0579 42.6667H36.0817L36.4627 40H33.3333ZM31.9421 40H28.0579L28.2801 42.6667H31.7199L31.9421 40ZM26.7199 40H26.6667H23.5373L23.9183 42.6667H26.9421L26.7199 40ZM28.6134 46.6667L28.3912 44H31.6088L31.3866 46.6667H28.6134ZM32.9468 44L32.7245 46.6667H34.3539C35.0174 46.6667 35.58 46.1788 35.6738 45.5219L35.8912 44H32.9468ZM27.0532 44L27.2755 46.6667H25.6461C24.9826 46.6667 24.42 46.1788 24.3262 45.5219L24.1088 44H27.0532Z" fill="#333333"/>
</svg>
