<svg width="112" height="80" viewBox="0 0 112 80" fill="none" xmlns="http://www.w3.org/2000/svg">
<rect width="112" height="80" fill="white"/>
<path fill-rule="evenodd" clip-rule="evenodd" d="M30.6667 36C30.6667 37.4728 29.4728 38.6667 28 38.6667C26.5272 38.6667 25.3333 37.4728 25.3333 36C25.3333 34.5272 26.5272 33.3333 28 33.3333C29.4728 33.3333 30.6667 34.5272 30.6667 36ZM32 36C32 38.2091 30.2091 40 28 40C25.7909 40 24 38.2091 24 36C24 33.7909 25.7909 32 28 32C30.2091 32 32 33.7909 32 36ZM23.1967 44.3102C24.4361 43.2774 26.1613 42.6667 28 42.6667C29.8387 42.6667 31.5639 43.2774 32.8033 44.3102C34.0354 45.337 34.6667 46.6719 34.6667 48H36C36 46.2321 35.1573 44.5363 33.6569 43.286C32.1566 42.0357 30.1218 41.3333 28 41.3333C25.8782 41.3333 23.8434 42.0357 22.3431 43.286C20.8427 44.5363 20 46.2321 20 48L21.3333 48C21.3333 46.6719 21.9646 45.337 23.1967 44.3102Z" fill="#333333"/>
<path d="M50.54 39.644C51.108 39.78 51.536 40.024 51.824 40.376C52.12 40.72 52.268 41.164 52.268 41.708C52.268 42.436 52 43 51.464 43.4C50.936 43.8 50.164 44 49.148 44H45.308V35.6H48.92C49.84 35.6 50.556 35.788 51.068 36.164C51.588 36.532 51.848 37.064 51.848 37.76C51.848 38.216 51.732 38.604 51.5 38.924C51.276 39.244 50.956 39.484 50.54 39.644ZM46.496 39.296H48.836C49.42 39.296 49.864 39.18 50.168 38.948C50.48 38.716 50.636 38.376 50.636 37.928C50.636 37.48 50.48 37.14 50.168 36.908C49.856 36.668 49.412 36.548 48.836 36.548H46.496V39.296ZM49.124 43.052C50.412 43.052 51.056 42.572 51.056 41.612C51.056 41.132 50.892 40.78 50.564 40.556C50.244 40.324 49.764 40.208 49.124 40.208H46.496V43.052H49.124ZM58.2928 44.096C57.4448 44.096 56.6808 43.912 56.0008 43.544C55.3208 43.168 54.7848 42.652 54.3928 41.996C54.0088 41.34 53.8168 40.608 53.8168 39.8C53.8168 38.992 54.0088 38.26 54.3928 37.604C54.7848 36.948 55.3208 36.436 56.0008 36.068C56.6808 35.692 57.4448 35.504 58.2928 35.504C59.1328 35.504 59.8928 35.692 60.5728 36.068C61.2528 36.436 61.7848 36.948 62.1688 37.604C62.5528 38.252 62.7448 38.984 62.7448 39.8C62.7448 40.616 62.5528 41.352 62.1688 42.008C61.7848 42.656 61.2528 43.168 60.5728 43.544C59.8928 43.912 59.1328 44.096 58.2928 44.096ZM58.2928 43.028C58.9088 43.028 59.4608 42.888 59.9488 42.608C60.4448 42.328 60.8328 41.944 61.1128 41.456C61.4008 40.96 61.5448 40.408 61.5448 39.8C61.5448 39.192 61.4008 38.644 61.1128 38.156C60.8328 37.66 60.4448 37.272 59.9488 36.992C59.4608 36.712 58.9088 36.572 58.2928 36.572C57.6768 36.572 57.1168 36.712 56.6128 36.992C56.1168 37.272 55.7248 37.66 55.4368 38.156C55.1568 38.644 55.0168 39.192 55.0168 39.8C55.0168 40.408 55.1568 40.96 55.4368 41.456C55.7248 41.944 56.1168 42.328 56.6128 42.608C57.1168 42.888 57.6768 43.028 58.2928 43.028ZM64.9247 35.6H66.1127V42.08L71.0807 35.6H72.1847V44H71.0087V37.532L66.0287 44H64.9247V35.6ZM68.5367 35.012C67.8807 35.012 67.3727 34.872 67.0127 34.592C66.6607 34.304 66.4807 33.896 66.4727 33.368H67.3247C67.3327 33.68 67.4407 33.924 67.6487 34.1C67.8647 34.268 68.1607 34.352 68.5367 34.352C68.8967 34.352 69.1847 34.268 69.4007 34.1C69.6247 33.924 69.7407 33.68 69.7487 33.368H70.5887C70.5807 33.888 70.3967 34.292 70.0367 34.58C69.6847 34.868 69.1847 35.012 68.5367 35.012ZM80.8156 36.644H77.9356V44H76.7596V36.644H73.8916V35.6H80.8156V36.644ZM82.5141 35.6H83.7021V42.08L88.6701 35.6H89.7741V44H88.5981V37.532L83.6181 44H82.5141V35.6Z" fill="#333333"/>
</svg>
