<svg width="60" height="80" viewBox="0 0 60 80" fill="none" xmlns="http://www.w3.org/2000/svg">
<rect width="60" height="80" fill="white"/>
<path fill-rule="evenodd" clip-rule="evenodd" d="M32.6667 36C32.6667 37.4728 31.4728 38.6667 30 38.6667C28.5272 38.6667 27.3333 37.4728 27.3333 36C27.3333 34.5272 28.5272 33.3333 30 33.3333C31.4728 33.3333 32.6667 34.5272 32.6667 36ZM34 36C34 38.2091 32.2091 40 30 40C27.7909 40 26 38.2091 26 36C26 33.7909 27.7909 32 30 32C32.2091 32 34 33.7909 34 36ZM25.1967 44.3102C26.4361 43.2774 28.1613 42.6667 30 42.6667C31.8387 42.6667 33.5639 43.2774 34.8033 44.3102C36.0354 45.337 36.6667 46.6719 36.6667 48H38C38 46.2321 37.1573 44.5363 35.6569 43.286C34.1566 42.0357 32.1218 41.3333 30 41.3333C27.8782 41.3333 25.8434 42.0357 24.3431 43.286C22.8427 44.5363 22 46.2321 22 48L23.3333 48C23.3333 46.6719 23.9646 45.337 25.1967 44.3102Z" fill="#333333"/>
</svg>
